<svg width="500" height="500" viewBox="0 0 500 500" fill="none" xmlns="http://www.w3.org/2000/svg">
<path d="M460.49 291.51C447.44 333.61 419.24 379.72 377.63 394.66C314.76 417.23 309.26 471.83 195.06 471.2C178.361 471.184 161.719 469.255 145.46 465.45C137.487 463.556 129.649 461.13 122 458.19C54.2999 432.19 17.1299 370.72 11.6999 305.08C4.51995 218.75 59.9399 175.33 96.0499 149.76C132.16 124.19 173.21 29 285.47 28.64C302.646 28.5199 319.772 30.4945 336.47 34.52C374.61 43.86 413.88 66.28 437.47 100.36C439.25 102.92 440.95 105.55 442.58 108.22C474.49 160.62 478.28 234.12 460.49 291.51Z" fill="#6F4E37"/>
<path opacity="0.7" d="M460.49 291.51C447.44 333.61 419.24 379.72 377.63 394.66C314.76 417.23 309.26 471.83 195.06 471.2C178.361 471.184 161.719 469.255 145.46 465.45C137.487 463.556 129.649 461.13 122 458.19C54.2999 432.19 17.1299 370.72 11.6999 305.08C4.51995 218.75 59.9399 175.33 96.0499 149.76C132.16 124.19 173.21 29 285.47 28.64C302.646 28.5199 319.772 30.4945 336.47 34.52C374.61 43.86 413.88 66.28 437.47 100.36C439.25 102.92 440.95 105.55 442.58 108.22C474.49 160.62 478.28 234.12 460.49 291.51Z" fill="white"/>
<path d="M354.07 123C354.07 123 435.94 83.51 453.4 135.38C470.86 187.25 435.56 247.13 407.6 258.78C379.64 270.43 342.52 244 342.52 244L350.72 220.15C350.72 220.15 386.34 233.27 407.5 221.23C428.66 209.19 441.43 145.8 412.23 139.68C383.03 133.56 347.5 158 347.5 158L354.07 123Z" fill="white" stroke="#263238" stroke-linecap="round" stroke-linejoin="round"/>
<path opacity="0.24" d="M409.86 137.2C415.86 138.12 423.54 143.03 426.29 148.08C423.79 140.59 419.8 131.99 410.29 130.49C386.92 126.79 356.19 139.99 346.73 145.79L345.45 152.62C346.6 153.86 382.4 133 409.86 137.2Z" fill="black"/>
<path opacity="0.24" d="M451.69 135.21C451.018 133.215 450.206 131.27 449.26 129.39C449.4 129.76 449.54 130.12 449.67 130.49C467.12 182.37 431.52 237.04 403.56 248.69C380.33 258.36 350.78 241.69 341.45 235.82L340.5 238.57C340.5 238.57 377.74 268.03 405.7 256.39C433.66 244.75 469.14 187.08 451.69 135.21Z" fill="black"/>
<g opacity="0.24">
<path d="M347.5 158C354.833 153.188 362.612 149.092 370.73 145.77C370.92 133.86 370.73 123.7 370.43 116.47C364.863 118.352 359.402 120.532 354.07 123L347.5 158Z" fill="black"/>
<path d="M362.94 223.59C358.802 222.668 354.722 221.506 350.72 220.11L342.52 244C346.601 246.791 350.864 249.306 355.28 251.53C358.448 242.396 361.007 233.062 362.94 223.59Z" fill="black"/>
</g>
<path d="M64.7798 110C65.6998 195 61.1198 308.31 211.19 308.31C368.41 308.26 356.69 195 357.6 110H64.7798Z" fill="white" stroke="#263238" stroke-linecap="round" stroke-linejoin="round"/>
<g opacity="0.24">
<path d="M341.92 110C341.38 178.75 347.49 265.12 273.92 295.34C358.92 267.15 351.14 179.06 351.92 110H341.92Z" fill="black"/>
</g>
<path d="M64.9399 127.66V129.66H357.53V127.66H64.9399Z" fill="#263238" stroke="#263238" stroke-miterlimit="10"/>
<path d="M357.46 147.19C357.51 142.9 357.52 138.63 357.53 134.4H65C65.06 138.627 65.1467 142.89 65.26 147.19H357.46Z" fill="#263238" stroke="#263238" stroke-miterlimit="10"/>
<path d="M318.08 308.52C318.08 308.52 298.3 301.36 291.84 296.45C285.38 291.54 268.44 271.94 248.26 262.89C228.08 253.84 190.54 249.31 178.43 251.57C166.32 253.83 158.25 256.1 158.25 256.1C158.25 256.1 114.66 260.25 94.0802 270.05C73.5002 279.85 49.2802 296.45 44.4302 302.49C39.5802 308.53 29.9002 322.49 24.6602 326.25C19.4202 330.01 10.9302 333.79 13.3602 336.05C15.7902 338.31 28.6902 344 28.6902 344C28.6902 344 49.2802 361.73 66.2302 370.78C83.1802 379.83 111.03 386.24 150.58 378.32C190.13 370.4 230.09 355.32 237.36 350.41C244.63 345.5 267.63 327.79 272.88 321.75C278.13 315.71 282.61 307.96 291.44 307.04C295.07 306.67 303.95 317.23 313.64 316.09C323.33 314.95 320.5 310 318.08 308.52Z" fill="#4D9946" stroke="#263238" stroke-miterlimit="10"/>
<path d="M304.12 308.33C303.721 306.413 303.421 304.477 303.22 302.53C298.71 300.53 294.31 298.32 291.84 296.45C285.39 291.55 268.44 271.94 248.26 262.89C228.08 253.84 190.54 249.31 178.43 251.57C166.32 253.83 158.25 256.1 158.25 256.1C158.25 256.1 123.74 259.39 101.63 267.02C111.02 275.25 123.24 283.35 139 290.61C175.28 307.33 216.63 318.66 225.58 319.03C234.53 319.4 264.35 318.83 272.47 317.14C274.17 316.79 275.9 316.36 277.63 315.94C281.28 311.58 285.31 307.65 291.44 307.01C294.18 306.73 299.92 312.67 306.73 315.12C305.649 312.944 304.775 310.67 304.12 308.33Z" fill="#263238" stroke="#263238" stroke-miterlimit="10"/>
<path d="M23.8501 331.15C23.8501 331.15 77.9301 328.89 121.52 319.08C165.11 309.27 203.86 302.86 232.52 299.47C261.18 296.08 287.01 298.34 292.26 299.85" stroke="#263238" stroke-miterlimit="10"/>
<path d="M288.21 304C272.052 301.584 255.677 300.95 239.38 302.11C211.93 304 163.5 311.16 146.55 315.31" stroke="#263238" stroke-miterlimit="10"/>
<path d="M201 273.45C214.89 283.57 232.51 299.45 232.51 299.45" stroke="#263238" stroke-miterlimit="10"/>
<path d="M170.36 258C170.36 258 180.85 260.26 194.98 269.31C195.98 269.94 196.98 270.64 198.07 271.38" stroke="#263238" stroke-miterlimit="10"/>
<path d="M245.87 280C254.59 288.35 263.77 296.17 266.01 296.87" stroke="#263238" stroke-miterlimit="10"/>
<path d="M214 256.85C214 256.85 234.58 268.92 243.87 277.97" stroke="#263238" stroke-miterlimit="10"/>
<path d="M142.11 265.91C153.245 269.474 163.542 275.257 172.38 282.91C186.5 295.35 194.98 302.14 194.98 302.14" stroke="#263238" stroke-miterlimit="10"/>
<path d="M156.21 304.1C158.47 306.39 160.04 307.91 160.67 308.1" stroke="#263238" stroke-miterlimit="10"/>
<path d="M111.43 267.41C111.43 267.41 121.12 273.83 134.03 283.63C140.901 289.064 147.387 294.968 153.44 301.3" stroke="#263238" stroke-miterlimit="10"/>
<path d="M101.79 311.09C107.63 314.32 112.24 316.82 112.24 316.82" stroke="#263238" stroke-miterlimit="10"/>
<path d="M75.1104 286.27C75.1104 286.27 88.4304 303.62 96.5004 308.14L98.1104 309.05" stroke="#263238" stroke-miterlimit="10"/>
<path d="M93.27 275.71C93.27 275.71 114.66 294.19 123.14 301.71C131.62 309.23 135.65 310.71 135.65 310.71" stroke="#263238" stroke-miterlimit="10"/>
<path d="M61 300.22C61 300.22 76.74 318.33 85.22 322.48" stroke="#263238" stroke-miterlimit="10"/>
<path d="M42 311.16C42 311.16 54.51 324.36 60.57 325.87" stroke="#263238" stroke-miterlimit="10"/>
<path d="M242.2 303.24C235.689 312.184 230.142 321.79 225.65 331.9C218.79 347.74 210.72 354.15 206.65 357.17" stroke="#263238" stroke-miterlimit="10"/>
<path d="M185.63 345.61C184.2 347.78 182.86 349.78 181.63 351.51C171.94 365.51 160.24 370.37 160.24 370.37" stroke="#263238" stroke-miterlimit="10"/>
<path d="M209.91 306.26C209.91 306.26 198.08 326.2 188.38 341.35" stroke="#263238" stroke-miterlimit="10"/>
<path d="M124.94 370.76C122.569 372.862 119.925 374.634 117.08 376.03" stroke="#263238" stroke-miterlimit="10"/>
<path d="M172 311.54C172 311.54 165.55 320.97 150.21 342.09C144.247 350.497 137.622 358.415 130.4 365.77" stroke="#263238" stroke-miterlimit="10"/>
<path d="M124.28 329.42C121.56 333.29 118.07 338.1 113.85 343.59C105.682 354.116 95.5393 362.947 83.9902 369.59" stroke="#263238" stroke-miterlimit="10"/>
<path d="M131.21 319.08C131.21 319.08 129.66 321.59 126.66 325.98" stroke="#263238" stroke-miterlimit="10"/>
<path d="M92.28 331.64C88.56 336.39 82.84 343.64 77.13 350.76C67.44 362.83 63 364.34 63 364.34" stroke="#263238" stroke-miterlimit="10"/>
<path d="M96.5003 326.25L94.3203 329" stroke="#263238" stroke-miterlimit="10"/>
<path d="M60.5802 330.4C57.6727 334.2 54.572 337.848 51.2902 341.33C45.6402 347.33 42.4102 349.25 42.4102 349.25" stroke="#263238" stroke-miterlimit="10"/>
<path d="M82.37 327.76C82.37 327.76 72.69 337.18 63.81 346.61C54.93 356.04 51.29 357.17 51.29 357.17" stroke="#263238" stroke-miterlimit="10"/>
<path d="M251.89 321C243.41 340.61 236.55 346.26 236.55 346.26" stroke="#263238" stroke-miterlimit="10"/>
<path d="M266 301.73C266 301.73 261.27 301.42 254 316.39" stroke="#263238" stroke-miterlimit="10"/>
<path d="M322.16 320.29C322.16 320.29 310.23 303.91 307.88 296.45C305.53 288.99 303.49 263.85 292.37 245.7C281.25 227.55 253.09 203.92 241.74 199.36C230.39 194.8 222.38 192.36 222.38 192.36C222.38 192.36 184 172.7 161.06 169.86C138.12 167.02 108.14 167.86 100.48 170.25C92.82 172.64 76.38 179.01 69.77 179.33C63.16 179.65 53.89 178.27 54.51 181.42C55.13 184.57 62.33 196.07 62.33 196.07C62.33 196.07 68.52 221.58 77 238C85.48 254.42 104.49 274.5 141.87 289C179.25 303.5 221.31 312.21 230.27 312C239.23 311.79 268.94 309.41 276.92 307.23C284.9 305.05 293.31 301.03 301.14 304.96C304.36 306.57 305.26 319.96 313.92 324.18C322.58 328.4 323.24 322.82 322.16 320.29Z" fill="#4D9946" stroke="#263238" stroke-miterlimit="10"/>
<path d="M66.1304 182.94C66.1304 182.94 112.04 209.75 153.89 224.78C195.74 239.81 231.54 255.08 257.2 267.48C282.86 279.88 302.75 295.43 306.2 299.48" stroke="#263238" stroke-miterlimit="10"/>
<path d="M300.31 300.73C288.383 290.114 275.273 280.907 261.24 273.29C237.5 260.29 193.24 240.52 176.79 234.95" stroke="#263238" stroke-miterlimit="10"/>
<path d="M247 229.35C252.3 245.04 257.16 267.48 257.16 267.48" stroke="#263238" stroke-miterlimit="10"/>
<path d="M231.2 200.36C231.2 200.36 238.47 207.79 244.61 222.73C245.04 223.78 245.47 224.9 245.9 226.07" stroke="#263238" stroke-miterlimit="10"/>
<path d="M280 258.5C282.12 269.99 284.92 281.3 286.35 283.06" stroke="#263238" stroke-miterlimit="10"/>
<path d="M267.78 222.54C267.78 222.54 277.41 243.39 279.55 255.77" stroke="#263238" stroke-miterlimit="10"/>
<path d="M203.13 191.91C210.129 200.727 215.119 210.965 217.75 221.91C221.83 239.65 224.68 249.73 224.68 249.73" stroke="#263238" stroke-miterlimit="10"/>
<path d="M191.54 230.84C192.02 233.92 192.39 236.01 192.77 236.53" stroke="#263238" stroke-miterlimit="10"/>
<path d="M177 176.89C177 176.89 181.09 187.3 185.77 202.23C188.45 210.77 189.98 220.23 191.02 227.07" stroke="#263238" stroke-miterlimit="10"/>
<path d="M142.49 207.74C145.34 213.5 147.62 218 147.62 218" stroke="#263238" stroke-miterlimit="10"/>
<path d="M135.59 173.16C135.59 173.16 136.03 194.51 139.92 202.51L140.71 204.11" stroke="#263238" stroke-miterlimit="10"/>
<path d="M157 174.09C157 174.09 163.39 200.65 165.79 211.35C168.19 222.05 170.6 225.44 170.6 225.44" stroke="#263238" stroke-miterlimit="10"/>
<path d="M115.49 177.16C115.49 177.16 117.49 200.41 121.92 208.32" stroke="#263238" stroke-miterlimit="10"/>
<path d="M93.2202 176.11C93.2202 176.11 95.5102 193.61 99.5802 198.11" stroke="#263238" stroke-miterlimit="10"/>
<path d="M262.88 275.72C252.088 279.641 241.705 284.608 231.88 290.55C216.62 299.95 206.08 300.95 200.88 301.3" stroke="#263238" stroke-miterlimit="10"/>
<path d="M190.57 280.61C188.08 281.61 185.76 282.61 183.72 283.37C167.27 289.73 154.65 287.56 154.65 287.56" stroke="#263238" stroke-miterlimit="10"/>
<path d="M234.46 261.08C234.46 261.08 212.61 271.24 195.46 278.57" stroke="#263238" stroke-miterlimit="10"/>
<path d="M125.32 269.15C122.121 269.629 118.874 269.686 115.66 269.32" stroke="#263238" stroke-miterlimit="10"/>
<path d="M200 245.32C200 245.32 189 249.66 163.51 258.92C153.514 262.678 143.253 265.686 132.81 267.92" stroke="#263238" stroke-miterlimit="10"/>
<path d="M149.88 234.76C145.29 236.51 139.5 238.62 132.69 240.91C119.686 245.243 105.993 247.138 92.3003 246.5" stroke="#263238" stroke-miterlimit="10"/>
<path d="M161.87 229.92C161.87 229.92 159.07 231.17 153.94 233.19" stroke="#263238" stroke-miterlimit="10"/>
<path d="M122.19 219.62C116.19 221.56 107.12 224.5 98.1002 227.33C82.7902 232.14 78.2202 231.03 78.2202 231.03" stroke="#263238" stroke-miterlimit="10"/>
<path d="M128.93 217.42L125.44 218.56" stroke="#263238" stroke-miterlimit="10"/>
<path d="M96.8302 201.79C96.8302 201.79 90.8302 203.9 82.5502 205.88C74.2702 207.86 70.4302 207.69 70.4302 207.69" stroke="#263238" stroke-miterlimit="10"/>
<path d="M116.38 211.17C116.38 211.17 102.68 213.8 89.6502 216.86C76.6202 219.92 72.9302 218.92 72.9302 218.92" stroke="#263238" stroke-miterlimit="10"/>
<path d="M260.1 295.45C241.21 307.1 232.1 308.13 232.1 308.13" stroke="#263238" stroke-miterlimit="10"/>
<path d="M283.41 287.1C283.41 287.1 279.7 284.33 264.61 292.79" stroke="#263238" stroke-miterlimit="10"/>
<path d="M213.54 327.49C213.54 327.49 201.31 333.19 196.46 342.88C191.61 352.57 192.6 369.93 203.73 379.3C214.86 388.67 235.54 398.18 263.13 397.3C290.72 396.42 308.67 377.4 311.51 364.95C314.35 352.5 308.33 338.55 292.09 328.77C275.85 318.99 264.16 319.98 247.64 320.01C231.12 320.04 213.54 327.49 213.54 327.49Z" fill="#533927" stroke="#263238" stroke-miterlimit="10"/>
<path d="M71.2098 341.33C71.2098 341.33 59.8998 348.7 56.4698 359C53.0398 369.3 56.4698 386.32 68.8098 394C81.1498 401.68 102.97 408.2 130.17 403.47C157.37 398.74 172.44 377.34 173.49 364.61C174.54 351.88 166.62 338.93 149.16 331.54C131.7 324.15 120.27 326.78 103.92 329.15C87.5698 331.52 71.2098 341.33 71.2098 341.33Z" fill="#533927" stroke="#263238" stroke-miterlimit="10"/>
<path d="M422.63 338.81C422.63 338.81 429.87 340.93 435.47 349C438.118 352.915 439.821 357.391 440.446 362.077C441.07 366.762 440.599 371.528 439.07 376C436.07 384.45 421.28 399.67 407.59 406.65C393.9 413.63 377.16 414.46 363.68 407.29C350.2 400.12 346.57 383.58 345.5 381.18C344.43 378.78 341.06 362.9 349.5 348.9C357.94 334.9 366.26 326.39 379.73 322.32C393.2 318.25 405.94 320.53 412.35 326.61C418.76 332.69 419.77 338.23 419.77 338.23L422.63 338.81Z" fill="#6F4E37"/>
<path d="M345.15 359.59L347.63 352.46C347.98 351.69 348.37 350.92 348.79 350.16C347.92 354.16 346.7 361.05 347.07 367.11C347.64 376.31 349.61 379.24 360.53 390.45C371.45 401.66 375.01 401.18 380.29 402.94C385.57 404.7 398.66 403.94 412.15 398.45C420.254 395.121 427.301 389.653 432.54 382.63L440.28 371.24C440.011 372.855 439.606 374.444 439.07 375.99C436.07 384.44 421.28 399.66 407.59 406.64C393.9 413.62 377.16 414.45 363.68 407.28C350.2 400.11 346.57 383.57 345.5 381.17C344.69 379.38 342.61 370 345.15 359.59Z" fill="#60432E"/>
<path d="M415.5 339.88C415.5 339.88 413.31 339.03 406.8 347.52C400.29 356.01 389.52 361.24 384.11 368.19C378.7 375.14 373.91 382.02 372.11 384.8C370.31 387.58 367.19 389.48 365.69 391.93C364.19 394.38 363.2 398.11 362.3 397.72C361.4 397.33 365.89 390 365.76 387.8C365.63 385.6 363.49 380.8 364.49 378.86C365.49 376.92 369.79 374.26 369.2 373.34C368.61 372.42 358.95 368.62 363.29 369.54C367.63 370.46 372.08 372.76 373.23 371.03C374.38 369.3 375.23 365.34 375.23 365.34C375.23 365.34 373.8 364.64 376 363.53C378.2 362.42 381.09 358.09 381.09 358.09C381.09 358.09 388.39 350.55 393.27 347.09C398.15 343.63 400.43 342.09 402.94 341.43C405.45 340.77 405.13 341.3 407.46 339.62C409.79 337.94 408.93 336.38 410.89 337.39C412.85 338.4 418.75 336.62 415.5 339.88Z" fill="#263238" stroke="#263238" stroke-miterlimit="10"/>
<path d="M418.59 395.55C418.59 395.55 409.28 399.5 401.8 402.27C394.32 405.04 380.18 402.86 375.01 401.18" stroke="#263238" stroke-miterlimit="10"/>
<path d="M370.45 399.43C370.45 399.43 366.2 397.16 365.11 395.75" stroke="#263238" stroke-miterlimit="10"/>
<path d="M361.74 392.08C361.74 392.08 355.82 386.5 353.13 382.38C350.44 378.26 348 377 347.07 367.11C346.14 357.22 348.91 352.71 348.91 352.71" stroke="#263238" stroke-miterlimit="10"/>
<path d="M422.63 338.81C422.63 338.81 429.87 340.93 435.47 349C438.118 352.915 439.821 357.391 440.446 362.077C441.07 366.762 440.599 371.528 439.07 376C436.07 384.45 421.28 399.67 407.59 406.65C393.9 413.63 377.16 414.46 363.68 407.29C350.2 400.12 346.57 383.58 345.5 381.18C344.43 378.78 341.06 362.9 349.5 348.9C357.94 334.9 366.26 326.39 379.73 322.32C393.2 318.25 405.94 320.53 412.35 326.61C418.76 332.69 419.77 338.23 419.77 338.23L422.63 338.81Z" stroke="#263238" stroke-miterlimit="10"/>
<path d="M391.83 396.88C391.72 397.36 392.49 397.94 393.54 398.16C394.59 398.38 395.54 398.16 395.63 397.68C395.72 397.2 394.97 396.62 393.91 396.4C392.85 396.18 391.93 396.39 391.83 396.88Z" stroke="#263238" stroke-miterlimit="10"/>
<path d="M406.09 327.724C406.192 327.238 405.421 326.664 404.367 326.442C403.313 326.221 402.376 326.435 402.274 326.922C402.171 327.408 402.943 327.982 403.997 328.204C405.051 328.425 405.988 328.21 406.09 327.724Z" stroke="#263238" stroke-miterlimit="10"/>
<path d="M391.8 324.19C391.58 325.19 392.72 326.33 394.34 326.67C395.96 327.01 397.45 326.45 397.66 325.42C397.87 324.39 396.74 323.28 395.12 322.94C393.5 322.6 392 323.16 391.8 324.19Z" stroke="#263238" stroke-miterlimit="10"/>
<path d="M271.44 298.91C271.44 298.91 258.05 300.64 250.5 308.41C242.95 316.18 238.63 333.02 246.4 345.32C254.17 357.62 271 373 297.55 380.5C324.1 388 346.98 375.32 353.45 364.31C359.92 353.3 358.45 338.2 345.9 323.95C333.35 309.7 321.9 307.11 306.19 302.15C290.48 297.19 271.44 298.91 271.44 298.91Z" fill="#6F4E37"/>
<path d="M353.45 364.31C356.819 358.51 357.993 351.693 356.76 345.1C351.92 349.67 338.02 358.63 303.63 358.25C277.35 357.95 255.71 340.46 242.53 326.41C241.608 332.971 242.975 339.649 246.4 345.32C254.17 357.62 271 372.95 297.55 380.5C324.1 388.05 347 375.32 353.45 364.31Z" fill="#60432E"/>
<path d="M271.44 298.91C271.44 298.91 258.05 300.64 250.5 308.41C242.95 316.18 238.63 333.02 246.4 345.32C254.17 357.62 271 373 297.55 380.5C324.1 388 346.98 375.32 353.45 364.31C359.92 353.3 358.45 338.2 345.9 323.95C333.35 309.7 321.9 307.11 306.19 302.15C290.48 297.19 271.44 298.91 271.44 298.91Z" stroke="#263238" stroke-miterlimit="10"/>
<path d="M272.88 305.12C272.88 305.78 272.08 306.32 271.09 306.32C270.1 306.32 269.29 305.78 269.29 305.12C269.29 304.46 270.1 303.92 271.09 303.92C272.08 303.92 272.88 304.46 272.88 305.12Z" stroke="#263238" stroke-miterlimit="10"/>
<path d="M287.25 309.25C287.25 310.11 286.09 310.81 284.66 310.81C283.23 310.81 282.06 310.11 282.06 309.25C282.06 308.39 283.22 307.69 284.66 307.69C286.1 307.69 287.25 308.38 287.25 309.25Z" stroke="#263238" stroke-miterlimit="10"/>
<path d="M276.78 312.3C276.78 312.96 275.97 313.5 274.98 313.5C273.99 313.5 273.18 312.96 273.18 312.3C273.18 311.64 273.99 311.11 274.98 311.11C275.97 311.11 276.78 311.64 276.78 312.3Z" stroke="#263238" stroke-miterlimit="10"/>
<path d="M380.13 392.13C380.13 392.13 376.65 388.27 360.64 382.29C344.63 376.31 325.71 373.8 320.5 374.38C315.29 374.96 312.01 373.8 306.22 375.54C300.43 377.28 297.92 377.66 297.15 378.62C296.38 379.58 294.25 381.52 294.06 382.1C293.87 382.68 284.99 384.61 284.8 400.82C284.61 417.03 294.06 428.41 312.01 436.9C329.96 445.39 338.83 449.83 358.32 449.25C377.81 448.67 387.08 438.64 393.06 430.53C399.04 422.42 397.5 408.73 393.06 402.36C390.059 398.343 385.976 395.263 381.29 393.48L380.13 392.13Z" fill="#6F4E37"/>
<path d="M395 415.68C394.44 423.11 389.43 428.86 385.16 431.83C380.89 434.8 369.8 437 367 437.21C364.2 437.42 344.91 436.47 336.38 434.99C327.85 433.51 318.94 428.8 311.69 425.89C304.44 422.98 295.17 416.05 289.6 407.89C285.84 402.36 285.89 395.15 286.32 391.05C285.278 394.201 284.761 397.502 284.79 400.82C284.59 417.03 294.05 428.41 312 436.9C329.95 445.39 338.82 449.83 358.31 449.25C377.8 448.67 387.07 438.64 393.05 430.53C397.62 424.33 397.79 414.87 395.63 407.91C395.48 409.88 395.28 412.51 395 415.68Z" fill="#60432E"/>
<path d="M298.69 385.76C298.69 385.76 306.99 391.76 308.34 392.71C309.69 393.66 314.9 395.8 319.34 397.92C323.78 400.04 334.2 403.92 345.39 407.38C356.58 410.84 369.9 416.06 372.22 416.83C374.54 417.6 377.43 419.53 377.81 422.24C378.19 424.95 371.64 432.66 374.34 433.24C377.04 433.82 380.51 428.99 381.09 427.06C381.67 425.13 380.51 423.2 382.25 422.62C383.99 422.04 387.85 423.97 387.85 422.62C387.85 421.27 382.85 418.38 382.85 418.38C379.079 415.93 375.146 413.739 371.08 411.82C365.48 409.31 362.97 409.89 356.22 406.22C349.47 402.55 343.66 398.5 337.87 396C333.572 394.308 329.107 393.078 324.55 392.33C323.78 392.14 327.44 395.42 321.46 390.6C315.48 385.78 308.15 385.77 306.22 385.39C304.29 385.01 293.67 380.75 298.69 385.76Z" fill="#263238" stroke="#263238" stroke-miterlimit="10"/>
<path d="M286.73 399.46C286.73 399.46 284.8 407.57 295.99 415.46C307.18 423.35 312.2 426.85 318.99 428.78" stroke="#263238" stroke-miterlimit="10"/>
<path d="M322.62 430.15C330.307 433.24 338.343 435.379 346.55 436.52C359.09 438.06 374.55 436.32 374.55 436.32" stroke="#263238" stroke-miterlimit="10"/>
<path d="M381.29 433.62C383.584 432.732 385.729 431.498 387.65 429.96C390.809 427.375 393.101 423.886 394.22 419.96" stroke="#263238" stroke-miterlimit="10"/>
<path d="M380.13 392.13C380.13 392.13 376.65 388.27 360.64 382.29C344.63 376.31 325.71 373.8 320.5 374.38C315.29 374.96 312.01 373.8 306.22 375.54C300.43 377.28 297.92 377.66 297.15 378.62C296.38 379.58 294.25 381.52 294.06 382.1C293.87 382.68 284.99 384.61 284.8 400.82C284.61 417.03 294.06 428.41 312.01 436.9C329.96 445.39 338.83 449.83 358.32 449.25C377.81 448.67 387.08 438.64 393.06 430.53C399.04 422.42 397.5 408.73 393.06 402.36C390.059 398.343 385.976 395.263 381.29 393.48L380.13 392.13Z" stroke="#263238" stroke-miterlimit="10"/>
<path d="M312.17 418.37C313.407 418.37 314.41 417.698 314.41 416.87C314.41 416.042 313.407 415.37 312.17 415.37C310.933 415.37 309.93 416.042 309.93 416.87C309.93 417.698 310.933 418.37 312.17 418.37Z" stroke="#263238" stroke-miterlimit="10"/>
<path d="M322.79 423.16C322.79 423.65 322.12 424.06 321.3 424.06C320.48 424.06 319.8 423.65 319.8 423.16C319.8 422.67 320.47 422.26 321.3 422.26C322.13 422.26 322.79 422.66 322.79 423.16Z" stroke="#263238" stroke-miterlimit="10"/>
<path d="M343.6 420.77C344.18 420.77 344.65 420.501 344.65 420.17C344.65 419.839 344.18 419.57 343.6 419.57C343.02 419.57 342.55 419.839 342.55 420.17C342.55 420.501 343.02 420.77 343.6 420.77Z" stroke="#263238" stroke-miterlimit="10"/>
<path d="M386.25 400.41C386.25 400.91 385.38 401.31 384.3 401.31C383.22 401.31 382.36 400.91 382.36 400.41C382.36 399.91 383.23 399.51 384.3 399.51C385.37 399.51 386.25 399.91 386.25 400.41Z" stroke="#263238" stroke-miterlimit="10"/>
<path d="M197.14 363.25C196.697 362.699 196.198 362.196 195.65 361.75C191.87 358.59 176.47 347.01 155.36 348.45C133.78 349.93 110.74 357.38 104.56 371.79C98.3797 386.2 105.76 406.35 118.78 413.04C143.22 425.61 158.78 418.81 175.95 412.29C206.05 400.85 207.15 375.86 197.14 363.25Z" fill="#6F4E37"/>
<path d="M103.67 380.69C103.67 380.69 107.38 389.6 109.42 392.01C111.46 394.42 120.19 399.81 122.23 400.92C124.27 402.03 135.55 406.12 137.89 406.31C140.23 406.5 157.31 403.31 157.31 403.31C157.31 403.31 168.45 402.02 171.05 400.9C173.65 399.78 181.44 396.63 181.44 396.63C184.107 395.25 186.647 393.637 189.03 391.81C191.65 389.58 197.52 383.71 197.52 383.71C197.52 383.71 196.29 394.59 193.32 400.53C190.35 406.47 172.9 413.53 171.61 414.08C170.32 414.63 157.5 419.83 146.92 419.65C136.34 419.47 124.61 417 118.78 413C112.95 409 106.08 400.33 104.6 396.06C103.12 391.79 103.67 380.69 103.67 380.69Z" fill="#60432E"/>
<path d="M112.84 383.34C112.84 383.34 121.75 383.34 124.49 381.51C127.23 379.68 131.57 368.51 140.71 365.98C149.85 363.45 158.53 363.92 166.71 361.87C174.89 359.82 180.65 356.61 180.42 359.35C180.19 362.09 182.71 358.21 180.19 362.1C177.67 365.99 176.08 365.52 160.09 369.86C144.1 374.2 140.21 376.49 132.22 381.51C124.23 386.53 124.45 389.51 118.97 389.74C113.49 389.97 105.49 384.03 106.17 381.06C106.85 378.09 110.78 381.29 112.84 383.34Z" fill="#263238" stroke="#263238" stroke-miterlimit="10"/>
<path d="M106.44 386.82C106.44 386.82 110.1 395.11 115.89 397.62C121.68 400.13 127.28 405.73 137.89 406.31C148.5 406.89 157.96 402.64 163.17 401.87C168.38 401.1 170.17 401.48 172.63 400.13C175.09 398.78 177.07 397.24 178.42 396.46" stroke="#263238" stroke-miterlimit="10"/>
<path d="M182.66 393.76C182.66 393.76 186.52 393.96 189.03 391.83C190.68 390.389 192.169 388.773 193.47 387.01L197.52 383.73L200.61 380.06" stroke="#263238" stroke-miterlimit="10"/>
<path d="M197.14 363.25C196.697 362.699 196.198 362.196 195.65 361.75C191.87 358.59 176.47 347.01 155.36 348.45C133.78 349.93 110.74 357.38 104.56 371.79C98.3797 386.2 105.76 406.35 118.78 413.04C143.22 425.61 158.78 418.81 175.95 412.29C206.05 400.85 207.15 375.86 197.14 363.25Z" stroke="#263238" stroke-miterlimit="10"/>
<path d="M163.41 398.29C164.647 398.29 165.65 397.618 165.65 396.79C165.65 395.962 164.647 395.29 163.41 395.29C162.173 395.29 161.17 395.962 161.17 396.79C161.17 397.618 162.173 398.29 163.41 398.29Z" stroke="#263238" stroke-miterlimit="10"/>
<path d="M135.87 398.13C135.87 398.55 135.37 398.88 134.75 398.88C134.13 398.88 133.63 398.55 133.63 398.13C133.63 397.71 134.13 397.38 134.75 397.38C135.37 397.38 135.87 397.72 135.87 398.13Z" stroke="#263238" stroke-miterlimit="10"/>
<path d="M182.12 380.32C182.12 380.74 181.61 381.07 180.99 381.07C180.37 381.07 179.87 380.74 179.87 380.32C179.87 379.9 180.37 379.58 180.99 379.58C181.61 379.58 182.12 379.91 182.12 380.32Z" stroke="#263238" stroke-miterlimit="10"/>
<path d="M113.35 372.69C113.35 373.1 112.84 373.44 112.22 373.44C111.6 373.44 111.1 373.1 111.1 372.69C111.1 372.28 111.6 371.94 112.22 371.94C112.84 371.94 113.35 372.28 113.35 372.69Z" stroke="#263238" stroke-miterlimit="10"/>
<path d="M218.9 378.16C218.9 378.16 211.37 378.74 204.23 385.5C200.838 388.786 198.254 392.813 196.681 397.265C195.107 401.717 194.586 406.473 195.16 411.16C196.32 420.04 207.71 437.99 219.67 447.64C231.63 457.29 247.85 461.53 262.51 457.28C277.17 453.03 284.13 437.6 285.67 435.48C287.21 433.36 293.77 418.48 288.37 403.06C282.97 387.64 276.6 377.58 264.25 370.83C251.9 364.08 238.97 363.69 231.44 368.32C223.91 372.95 221.79 378.16 221.79 378.16H218.9Z" fill="#6F4E37"/>
<path d="M290.45 414.42L289.45 406.94C289.263 406.12 289.043 405.29 288.79 404.45C288.79 408.54 288.59 415.53 286.98 421.39C284.54 430.28 281.98 432.74 268.98 441.46C255.98 450.18 252.6 448.99 247.08 449.63C241.56 450.27 228.88 446.84 216.82 438.68C209.595 433.746 203.844 426.944 200.18 419L195 406.26C194.925 407.896 194.992 409.536 195.2 411.16C196.36 420.04 207.75 437.99 219.71 447.64C231.67 457.29 247.89 461.53 262.55 457.28C277.21 453.03 284.17 437.6 285.71 435.48C286.82 433.89 290.79 425.18 290.45 414.42Z" fill="#60432E"/>
<path d="M225.65 380.67C225.65 380.67 227.97 380.29 232.6 389.94C237.23 399.59 246.69 406.94 250.6 414.83C254.51 422.72 257.74 430.46 258.9 433.55C260.06 436.64 262.76 439.14 263.72 441.85C264.68 444.56 264.88 448.41 265.84 448.21C266.8 448.01 263.91 439.92 264.49 437.79C265.07 435.66 268.16 431.43 267.58 429.3C267 427.17 263.33 423.71 264.11 422.93C264.89 422.15 275.11 420.43 270.67 420.43C266.23 420.43 261.4 421.78 260.67 419.85C259.94 417.92 259.9 413.85 259.9 413.85C259.9 413.85 261.44 413.47 259.51 411.92C257.58 410.37 255.66 405.56 255.66 405.56C255.66 405.56 250.06 396.68 246.01 392.24C241.96 387.8 240.01 385.87 237.71 384.71C235.41 383.55 235.59 384.14 233.66 382.01C231.73 379.88 232.88 378.54 230.76 379.12C228.64 379.7 223.15 376.81 225.65 380.67Z" fill="#263238" stroke="#263238" stroke-miterlimit="10"/>
<path d="M211.18 434.51C211.18 434.51 219.48 440.3 226.18 444.51C232.88 448.72 247.18 449.51 252.62 448.95" stroke="#263238" stroke-miterlimit="10"/>
<path d="M257.5 448.21C257.5 448.21 262.13 446.86 263.5 445.71" stroke="#263238" stroke-miterlimit="10"/>
<path d="M267.53 442.81C267.53 442.81 274.53 438.57 277.95 435.09C281.37 431.61 284.13 430.85 287.02 421.39C289.91 411.93 288.18 406.92 288.18 406.92" stroke="#263238" stroke-miterlimit="10"/>
<path d="M218.9 378.16C218.9 378.16 211.37 378.74 204.23 385.5C200.838 388.786 198.254 392.813 196.681 397.265C195.107 401.717 194.586 406.473 195.16 411.16C196.32 420.04 207.71 437.99 219.67 447.64C231.63 457.29 247.85 461.53 262.51 457.28C277.17 453.03 284.13 437.6 285.67 435.48C287.21 433.36 293.77 418.48 288.37 403.06C282.97 387.64 276.6 377.58 264.25 370.83C251.9 364.08 238.97 363.69 231.44 368.32C223.91 372.95 221.79 378.16 221.79 378.16H218.9Z" stroke="#263238" stroke-miterlimit="10"/>
<path d="M237.1 441.32C237.1 441.82 236.23 442.22 235.16 442.22C234.09 442.22 233.21 441.82 233.21 441.32C233.21 440.82 234.08 440.42 235.16 440.42C236.24 440.42 237.1 440.83 237.1 441.32Z" stroke="#263238" stroke-miterlimit="10"/>
<path d="M241.29 370.68C241.29 371.18 240.42 371.58 239.35 371.58C238.28 371.58 237.4 371.18 237.4 370.68C237.4 370.18 238.27 369.78 239.35 369.78C240.43 369.78 241.29 370.19 241.29 370.68Z" stroke="#263238" stroke-miterlimit="10"/>
<path d="M252.07 370.19C252.07 371.24 250.73 372.1 249.07 372.1C247.41 372.1 246.07 371.24 246.07 370.19C246.07 369.14 247.41 368.29 249.07 368.29C250.73 368.29 252.07 369.14 252.07 370.19Z" stroke="#263238" stroke-miterlimit="10"/>
<path d="M105.91 406.81C105.91 406.81 109.38 403 125.4 397C141.42 391 160.33 388.5 165.54 389.08C170.75 389.66 174.03 388.5 179.82 390.24C185.61 391.98 188.12 392.36 188.89 393.33C189.66 394.3 191.78 396.22 191.98 396.8C192.18 397.38 201.05 399.31 201.24 415.52C201.43 431.73 192 443.09 174 451.58C156 460.07 147.18 464.51 127.69 463.93C108.2 463.35 98.9997 453.32 92.9997 445.21C86.9997 437.1 88.5397 423.4 92.9997 417C96.0009 412.983 100.083 409.903 104.77 408.12L105.91 406.81Z" fill="#6F4E37"/>
<path d="M90.9999 430.36C91.5499 437.78 96.5599 443.54 100.83 446.51C105.1 449.48 116.24 451.7 119.02 451.89C121.8 452.08 141.11 451.15 149.65 449.66C158.19 448.17 167.08 443.47 174.34 440.57C181.6 437.67 190.86 430.73 196.43 422.57C200.19 417.05 200.14 409.83 199.71 405.74C200.752 408.887 201.269 412.185 201.24 415.5C201.43 431.71 191.98 443.1 174.03 451.59C156.08 460.08 147.21 464.52 127.72 463.94C108.23 463.36 98.9999 453.32 92.9999 445.21C88.4199 439.01 88.2599 429.54 90.4199 422.58C90.5499 424.56 90.7599 427.18 90.9999 430.36Z" fill="#60432E"/>
<path d="M187.35 400.44L177.7 407.39C176.35 408.39 171.14 410.47 166.7 412.6C162.26 414.73 151.84 418.6 140.64 422.05C129.44 425.5 116.14 430.74 113.82 431.51C111.5 432.28 108.61 434.21 108.22 436.91C107.83 439.61 114.4 447.33 111.7 447.91C109 448.49 105.52 443.67 104.94 441.74C104.36 439.81 105.52 437.88 103.79 437.3C102.06 436.72 98.1899 438.65 98.1899 437.3C98.1899 435.95 103.19 433.05 103.19 433.05C106.975 430.601 110.92 428.409 115 426.49C120.59 423.98 123.1 424.56 129.86 420.9C136.62 417.24 142.4 413.18 148.19 410.67C152.479 408.973 156.938 407.743 161.49 407C162.26 406.81 158.59 410.09 164.57 405.26C170.55 400.43 177.89 400.44 179.82 400.05C181.75 399.66 192.36 395.42 187.35 400.44Z" fill="#263238" stroke="#263238" stroke-miterlimit="10"/>
<path d="M199.31 414.14C199.31 414.14 201.24 422.25 190.05 430.14C178.86 438.03 173.84 441.52 167.05 443.45" stroke="#263238" stroke-miterlimit="10"/>
<path d="M163.42 444.82C155.734 447.915 147.697 450.055 139.49 451.19C126.94 452.74 111.49 451 111.49 451" stroke="#263238" stroke-miterlimit="10"/>
<path d="M104.75 448.3C102.451 447.41 100.303 446.172 98.3798 444.63C95.2171 442.05 92.9264 438.558 91.8198 434.63" stroke="#263238" stroke-miterlimit="10"/>
<path d="M105.91 406.81C105.91 406.81 109.38 403 125.4 397C141.42 391 160.33 388.5 165.54 389.08C170.75 389.66 174.03 388.5 179.82 390.24C185.61 391.98 188.12 392.36 188.89 393.33C189.66 394.3 191.78 396.22 191.98 396.8C192.18 397.38 201.05 399.31 201.24 415.52C201.43 431.73 192 443.09 174 451.58C156 460.07 147.18 464.51 127.69 463.93C108.2 463.35 98.9997 453.32 92.9997 445.21C86.9997 437.1 88.5397 423.4 92.9997 417C96.0009 412.983 100.083 409.903 104.77 408.12L105.91 406.81Z" stroke="#263238" stroke-miterlimit="10"/>
<path d="M173.87 433.05C175.107 433.05 176.11 432.378 176.11 431.55C176.11 430.722 175.107 430.05 173.87 430.05C172.633 430.05 171.63 430.722 171.63 431.55C171.63 432.378 172.633 433.05 173.87 433.05Z" stroke="#263238" stroke-miterlimit="10"/>
<path d="M163.24 437.83C163.24 438.33 163.91 438.73 164.74 438.73C165.57 438.73 166.24 438.33 166.24 437.83C166.24 437.33 165.57 436.94 164.74 436.94C163.91 436.94 163.24 437.34 163.24 437.83Z" stroke="#263238" stroke-miterlimit="10"/>
<path d="M141.39 434.84C141.39 435.17 141.86 435.44 142.44 435.44C143.02 435.44 143.49 435.17 143.49 434.84C143.49 434.51 143.02 434.24 142.44 434.24C141.86 434.24 141.39 434.51 141.39 434.84Z" stroke="#263238" stroke-miterlimit="10"/>
<path d="M99.7896 415.09C99.7896 415.58 100.66 415.98 101.73 415.98C102.8 415.98 103.73 415.58 103.73 415.09C103.73 414.6 102.86 414.19 101.73 414.19C100.6 414.19 99.7896 414.59 99.7896 415.09Z" stroke="#263238" stroke-miterlimit="10"/>
</svg>
