<svg width="678" height="960" viewBox="0 0 678 960" fill="none" xmlns="http://www.w3.org/2000/svg">
<path d="M677.778 820.927C673.003 865.811 659.633 900.19 637.669 924.064C616.659 947.939 585.623 959.876 544.559 959.876C513.999 959.876 486.783 952.713 462.908 938.389C439.034 923.109 413.25 897.802 385.555 862.468L243.741 684.842V945.551C233.236 947.461 217.479 949.848 196.47 952.713C176.415 956.533 155.883 958.443 134.874 958.443C113.864 958.443 94.7648 957.011 77.5753 954.146C61.3407 951.281 47.4935 945.551 36.0338 936.956C24.5741 928.362 15.5018 916.902 8.81696 902.577C3.0871 887.298 0.222168 867.721 0.222168 843.846V14.4489C10.7269 11.584 26.0065 8.71903 46.061 5.85414C67.0705 2.03422 88.08 0.124268 109.089 0.124268C130.099 0.124268 148.721 1.55671 164.956 4.42161C182.145 7.28656 196.47 13.0164 207.93 21.6112C219.389 30.206 227.984 42.1432 233.714 57.4228C240.399 71.7475 243.741 90.847 243.741 114.721V492.892L490.125 240.778C539.784 240.778 579.415 251.761 609.02 273.725C639.579 295.689 654.859 323.384 654.859 356.808C654.859 371.133 652.471 384.502 647.696 396.917C642.921 408.377 635.282 420.314 624.777 432.729C615.227 445.143 602.335 458.513 586.1 472.838C570.821 486.207 552.676 501.964 531.667 520.109L448.584 591.732L677.778 820.927Z" fill="#240C10"/>
</svg>
