<svg width="1025" height="1025" viewBox="0 0 1025 1025" fill="none" xmlns="http://www.w3.org/2000/svg">
<path d="M227.943 507.141L206.46 396.85H227.943V507.141Z" fill="#925D44"/>
<path d="M205.083 517.369L226.565 627.66H205.083V517.369Z" fill="#925D44"/>
<path d="M679.524 396.619H725.732V627.66H679.524V396.619Z" fill="#925D44"/>
<path d="M679.524 442.827V396.619L784.543 396.619V442.827L679.524 442.827Z" fill="#925D44"/>
<path d="M679.524 627.66V581.452H784.543V627.66H679.524Z" fill="#925D44"/>
<path d="M679.524 535.244V489.035L784.543 489.035V535.244H679.524Z" fill="#925D44"/>
<path d="M807.647 396.619H853.855V627.66H807.647V396.619Z" fill="#925D44"/>
<path d="M807.647 442.827V396.619L912.666 396.619V442.827L807.647 442.827Z" fill="#925D44"/>
<path d="M807.647 627.66V581.452H912.666V627.66H807.647Z" fill="#925D44"/>
<path d="M807.647 535.244V489.035L912.666 489.035V535.244H807.647Z" fill="#925D44"/>
<path d="M274.151 396.619H320.359V627.661H274.151V396.619Z" fill="#925D44"/>
<path d="M112.666 396.619H158.874V627.66H112.666V396.619Z" fill="#925D44"/>
<path d="M274.151 442.827V396.619L379.17 396.619V442.827L274.151 442.827Z" fill="#925D44"/>
<path d="M274.151 535.244V489.035L379.17 489.035V535.244H274.151Z" fill="#925D44"/>
<path d="M402.274 396.85H448.482V570.132H402.274V396.85Z" fill="#925D44"/>
<path d="M471.587 396.85H517.795V570.132H471.587V396.85Z" fill="#925D44"/>
<path d="M517.795 570.132C517.795 602.032 491.935 627.895 460.035 627.895C428.633 627.895 403.083 602.835 402.293 571.623L402.274 570.132H448.482C448.482 576.512 453.654 581.686 460.035 581.686C466.215 581.686 471.263 576.831 471.572 570.727L471.587 570.132H517.795Z" fill="#925D44"/>
<path d="M598.659 488.973C592.279 488.973 587.107 483.801 587.107 477.421H540.899C540.899 509.321 566.759 535.181 598.659 535.181V488.973Z" fill="#925D44"/>
<path d="M598.659 489.097V535.307C605.04 535.307 610.212 540.479 610.212 546.859H656.42C656.42 514.959 630.56 489.097 598.659 489.097Z" fill="#925D44"/>
<path d="M540.899 454.38H587.107V477.421H540.899V454.38Z" fill="#925D44"/>
<path d="M610.212 546.859H656.42V569.9H610.212V546.859Z" fill="#925D44"/>
<path d="M598.659 396.618C630.56 396.618 656.42 422.48 656.42 454.38H610.212C610.212 448 605.04 442.828 598.659 442.828C592.279 442.828 587.107 448 587.107 454.38H540.899C540.899 422.48 566.759 396.618 598.659 396.618Z" fill="#925D44"/>
<path d="M598.659 627.66C630.56 627.66 656.42 601.8 656.42 569.9H610.212C610.212 576.28 605.04 581.452 598.659 581.452C592.279 581.452 587.107 576.28 587.107 569.9H540.899C540.899 601.8 566.759 627.66 598.659 627.66Z" fill="#925D44"/>
</svg>
